<svg width="1442" height="340" viewBox="0 0 1442 340" fill="none" xmlns="http://www.w3.org/2000/svg">
<g clip-path="url(#clip0_2373_2769)">
<rect width="1442" height="340" fill="white"/>
<g clip-path="url(#clip1_2373_2769)" filter="url(#filter0_i_2373_2769)">
<rect width="1442" height="340" fill="#A8BBFF" fill-opacity="0.58"/>
<g clip-path="url(#clip2_2373_2769)">
<g opacity="0.5">
<g style="mix-blend-mode:difference" opacity="0.3">
<path opacity="0.5" d="M-0.250817 -66.1606V560.657M62.4242 -66.1606V560.657M125.099 -66.1606V560.657M187.774 -66.1606V560.657M250.449 -66.1606V560.657M313.124 -66.1606V560.657M375.799 -66.1606V560.657M438.474 -66.1606V560.657M501.149 -66.1606V560.657M563.824 -66.1606V560.657M626.499 -66.1606V560.657M689.174 -66.1606V560.657M751.849 -66.1606V560.657M814.524 -66.1606V560.657M877.199 -66.1606V560.657M-62.9257 498.039L939.874 498.039M-62.9257 435.364L939.874 435.364M-62.9257 372.689L939.874 372.689M-62.9257 310.014L939.874 310.014M-62.9258 247.339L939.874 247.339M-62.9258 184.664L939.874 184.664M-62.9258 121.989L939.874 121.989M-62.9258 59.3141L939.874 59.314M-62.9258 -3.36093L939.874 -3.36096" stroke="url(#paint0_radial_2373_2769)"/>
<path opacity="0.5" d="M877.2 560.657L877.2 -66.1609M814.525 560.657L814.525 -66.1609M751.85 560.657L751.85 -66.1609M689.175 560.657L689.175 -66.1609M626.5 560.657L626.5 -66.1609M563.825 560.657L563.825 -66.1609M501.15 560.657L501.15 -66.1609M438.475 560.657L438.475 -66.1609M375.8 560.657L375.8 -66.1609M313.125 560.657L313.125 -66.1609M250.45 560.657L250.45 -66.1609M187.775 560.657L187.775 -66.1609M125.1 560.657L125.1 -66.1609M62.4249 560.657L62.425 -66.1609M-0.250096 560.657L-0.250041 -66.1609M939.875 -3.54307L-62.9251 -3.54311M939.875 59.1319L-62.9251 59.1319M939.875 121.807L-62.9251 121.807M939.875 184.482L-62.9251 184.482M939.875 247.157L-62.925 247.157M939.875 309.832L-62.925 309.832M939.875 372.507L-62.925 372.507M939.875 435.182L-62.925 435.182M939.875 497.857L-62.925 497.857" stroke="url(#paint1_radial_2373_2769)"/>
<path opacity="0.8" d="M877.2 560.657L877.2 -66.1609M814.525 560.657L814.525 -66.1609M751.85 560.657L751.85 -66.1609M689.175 560.657L689.175 -66.1609M626.5 560.657L626.5 -66.1609M563.825 560.657L563.825 -66.1609M501.15 560.657L501.15 -66.1609M438.475 560.657L438.475 -66.1609M375.8 560.657L375.8 -66.1609M313.125 560.657L313.125 -66.1609M250.45 560.657L250.45 -66.1609M187.775 560.657L187.775 -66.1609M125.1 560.657L125.1 -66.1609M62.4249 560.657L62.425 -66.1609M-0.250096 560.657L-0.250041 -66.1609M939.875 -3.54307L-62.9251 -3.54311M939.875 59.1319L-62.9251 59.1319M939.875 121.807L-62.9251 121.807M939.875 184.482L-62.9251 184.482M939.875 247.157L-62.925 247.157M939.875 309.832L-62.925 309.832M939.875 372.507L-62.925 372.507M939.875 435.182L-62.925 435.182M939.875 497.857L-62.925 497.857" stroke="url(#paint2_radial_2373_2769)" stroke-opacity="0.5"/>
<rect x="-0.248047" y="247.248" width="62.6783" height="62.6783" fill="url(#paint3_radial_2373_2769)" fill-opacity="0.27"/>
<rect x="250.451" y="59.1289" width="62.6783" height="62.6783" fill="url(#paint4_radial_2373_2769)" fill-opacity="0.27"/>
<rect x="187.773" y="184.485" width="62.6783" height="62.6783" transform="rotate(-90 187.773 184.485)" fill="url(#paint5_radial_2373_2769)" fill-opacity="0.27"/>
<rect x="187.787" y="309.926" width="62.6783" height="62.6783" transform="rotate(-90 187.787 309.926)" fill="url(#paint6_radial_2373_2769)" fill-opacity="0.27"/>
<rect x="501.166" y="121.807" width="62.6783" height="62.6783" transform="rotate(-180 501.166 121.807)" fill="url(#paint7_radial_2373_2769)" fill-opacity="0.27"/>
<rect x="313.145" y="184.485" width="62.6783" height="62.6783" transform="rotate(90 313.145 184.485)" fill="url(#paint8_radial_2373_2769)" fill-opacity="0.27"/>
<rect x="375.822" y="247.248" width="62.6783" height="62.6783" fill="url(#paint9_radial_2373_2769)" fill-opacity="0.27"/>
<rect x="626.521" y="121.807" width="62.6783" height="62.6783" fill="url(#paint10_radial_2373_2769)" fill-opacity="0.27"/>
<rect x="501.18" y="247.164" width="62.6783" height="62.6783" transform="rotate(-90 501.18 247.164)" fill="url(#paint11_radial_2373_2769)" fill-opacity="0.27"/>
<rect x="751.879" y="121.807" width="62.6783" height="62.6783" transform="rotate(-90 751.879 121.807)" fill="url(#paint12_radial_2373_2769)" fill-opacity="0.27"/>
<rect x="563.857" y="247.248" width="62.6783" height="62.6783" fill="url(#paint13_radial_2373_2769)" fill-opacity="0.27"/>
<rect x="939.914" y="121.807" width="62.6783" height="62.6783" transform="rotate(-180 939.914 121.807)" fill="url(#paint14_radial_2373_2769)" fill-opacity="0.27"/>
<rect x="814.557" y="121.807" width="62.6783" height="62.6783" fill="url(#paint15_radial_2373_2769)" fill-opacity="0.27"/>
</g>
<g style="mix-blend-mode:difference" opacity="0.3">
<path opacity="0.5" d="M939.925 -66.1606V560.657M1002.6 -66.1606V560.657M1065.27 -66.1606V560.657M1127.95 -66.1606V560.657M1190.62 -66.1606V560.657M1253.3 -66.1606V560.657M1315.98 -66.1606V560.657M1378.65 -66.1606V560.657M1441.33 -66.1606V560.657M1504 -66.1606V560.657M1566.68 -66.1606V560.657M1629.35 -66.1606V560.657M1692.03 -66.1606V560.657M1754.7 -66.1606V560.657M1817.38 -66.1606V560.657M877.25 498.039L1880.05 498.039M877.25 435.364L1880.05 435.364M877.25 372.689L1880.05 372.689M877.25 310.014L1880.05 310.014M877.25 247.339L1880.05 247.339M877.25 184.664L1880.05 184.664M877.25 121.989L1880.05 121.989M877.25 59.3141L1880.05 59.314M877.25 -3.36093L1880.05 -3.36096" stroke="url(#paint16_radial_2373_2769)"/>
<path opacity="0.5" d="M1817.38 560.657L1817.38 -66.1609M1754.7 560.657L1754.7 -66.1609M1692.03 560.657L1692.03 -66.1609M1629.35 560.657L1629.35 -66.1609M1566.68 560.657L1566.68 -66.1609M1504 560.657L1504 -66.1609M1441.33 560.657L1441.33 -66.1609M1378.65 560.657L1378.65 -66.1609M1315.98 560.657L1315.98 -66.1609M1253.3 560.657L1253.3 -66.1609M1190.63 560.657L1190.63 -66.1609M1127.95 560.657L1127.95 -66.1609M1065.28 560.657L1065.28 -66.1609M1002.6 560.657L1002.6 -66.1609M939.926 560.657L939.926 -66.1609M1880.05 -3.54307L877.251 -3.54311M1880.05 59.1319L877.251 59.1319M1880.05 121.807L877.251 121.807M1880.05 184.482L877.251 184.482M1880.05 247.157L877.251 247.157M1880.05 309.832L877.251 309.832M1880.05 372.507L877.251 372.507M1880.05 435.182L877.251 435.182M1880.05 497.857L877.251 497.857" stroke="url(#paint17_radial_2373_2769)"/>
<path opacity="0.8" d="M1817.38 560.657L1817.38 -66.1609M1754.7 560.657L1754.7 -66.1609M1692.03 560.657L1692.03 -66.1609M1629.35 560.657L1629.35 -66.1609M1566.68 560.657L1566.68 -66.1609M1504 560.657L1504 -66.1609M1441.33 560.657L1441.33 -66.1609M1378.65 560.657L1378.65 -66.1609M1315.98 560.657L1315.98 -66.1609M1253.3 560.657L1253.3 -66.1609M1190.63 560.657L1190.63 -66.1609M1127.95 560.657L1127.95 -66.1609M1065.28 560.657L1065.28 -66.1609M1002.6 560.657L1002.6 -66.1609M939.926 560.657L939.926 -66.1609M1880.05 -3.54307L877.251 -3.54311M1880.05 59.1319L877.251 59.1319M1880.05 121.807L877.251 121.807M1880.05 184.482L877.251 184.482M1880.05 247.157L877.251 247.157M1880.05 309.832L877.251 309.832M1880.05 372.507L877.251 372.507M1880.05 435.182L877.251 435.182M1880.05 497.857L877.251 497.857" stroke="url(#paint18_radial_2373_2769)" stroke-opacity="0.5"/>
<rect x="939.928" y="247.248" width="62.6783" height="62.6783" fill="url(#paint19_radial_2373_2769)" fill-opacity="0.27"/>
<rect x="1190.63" y="59.1289" width="62.6783" height="62.6783" fill="url(#paint20_radial_2373_2769)" fill-opacity="0.27"/>
<rect x="1127.95" y="184.485" width="62.6783" height="62.6783" transform="rotate(-90 1127.95 184.485)" fill="url(#paint21_radial_2373_2769)" fill-opacity="0.27"/>
<rect x="1127.96" y="309.926" width="62.6783" height="62.6783" transform="rotate(-90 1127.96 309.926)" fill="url(#paint22_radial_2373_2769)" fill-opacity="0.27"/>
<rect x="1441.34" y="121.807" width="62.6783" height="62.6783" transform="rotate(-180 1441.34 121.807)" fill="url(#paint23_radial_2373_2769)" fill-opacity="0.27"/>
<rect x="1253.32" y="184.485" width="62.6783" height="62.6783" transform="rotate(90 1253.32 184.485)" fill="url(#paint24_radial_2373_2769)" fill-opacity="0.27"/>
<rect x="1316" y="247.248" width="62.6783" height="62.6783" fill="url(#paint25_radial_2373_2769)" fill-opacity="0.27"/>
</g>
</g>
</g>
<path d="M111.296 176.846L111.054 176.511C109.078 173.78 109.69 169.964 112.421 167.988L121.101 161.708C123.833 159.732 127.649 160.344 129.625 163.075L129.867 163.41C131.843 166.141 131.23 169.957 128.499 171.933L119.819 178.213C117.087 180.189 113.272 179.577 111.296 176.846Z" fill="#1D1337"/>
<path d="M107.2 173.705L106.958 173.371C104.982 170.639 105.595 166.823 108.326 164.847L117.006 158.567C119.737 156.591 123.553 157.203 125.529 159.935L125.771 160.269C127.747 163 127.135 166.816 124.404 168.792L115.723 175.073C112.992 177.048 109.176 176.436 107.2 173.705Z" fill="#402A78"/>
<path d="M107.885 172.956C106.143 170.549 106.682 167.185 109.09 165.443L117.331 159.48C119.739 157.738 123.103 158.277 124.845 160.685C126.587 163.093 126.047 166.457 123.639 168.199L115.398 174.162C112.991 175.904 109.627 175.364 107.885 172.956Z" fill="#462E84"/>
<path d="M108.91 172.213C107.505 170.271 107.94 167.557 109.883 166.152L117.756 160.455C119.699 159.05 122.412 159.485 123.818 161.428C125.223 163.37 124.788 166.084 122.845 167.489L114.972 173.186C113.029 174.591 110.315 174.156 108.91 172.213Z" fill="#AA9FC6"/>
<path d="M120.127 170.741L113.819 162.021L112.598 162.905L118.907 171.624L120.127 170.741Z" fill="#462E84"/>
<path d="M120.127 170.741L113.819 162.021L113.209 162.463L119.517 171.182L120.127 170.741Z" fill="#402A78"/>
<path d="M129.097 301.653L129.024 301.246C128.433 297.928 130.645 294.758 133.963 294.167L144.511 292.288C147.83 291.697 150.999 293.908 151.591 297.227L151.663 297.634C152.254 300.952 150.043 304.122 146.724 304.713L136.176 306.592C132.857 307.183 129.688 304.972 129.097 301.653Z" fill="#1D1337"/>
<path d="M122.704 299.009L122.632 298.603C122.041 295.284 124.252 292.114 127.571 291.523L138.118 289.644C141.437 289.053 144.607 291.265 145.198 294.583L145.271 294.99C145.862 298.309 143.65 301.478 140.332 302.07L129.784 303.948C126.465 304.539 123.295 302.328 122.704 299.009Z" fill="#402A78"/>
<path d="M123.647 298.632C123.126 295.706 125.075 292.912 128.001 292.391L138.016 290.607C140.942 290.086 143.736 292.035 144.257 294.961C144.778 297.887 142.829 300.681 139.903 301.202L129.888 302.986C126.962 303.507 124.168 301.558 123.647 298.632Z" fill="#462E84"/>
<path d="M124.894 298.409C124.473 296.049 126.046 293.795 128.406 293.375L137.974 291.67C140.335 291.25 142.589 292.823 143.009 295.183C143.429 297.544 141.857 299.798 139.496 300.218L129.928 301.922C127.568 302.343 125.314 300.77 124.894 298.409Z" fill="#AA9FC6"/>
<path d="M135.636 301.951L133.749 291.356L132.266 291.621L134.152 302.215L135.636 301.951Z" fill="#462E84"/>
<path d="M135.637 301.951L133.75 291.356L133.009 291.488L134.895 302.083L135.637 301.951Z" fill="#402A78"/>
<path d="M250.056 315.134L250.178 314.739C251.173 311.518 254.591 309.714 257.812 310.71L268.048 313.874C271.269 314.87 273.072 318.288 272.077 321.508L271.955 321.903C270.959 325.124 267.541 326.928 264.321 325.932L254.085 322.768C250.864 321.772 249.06 318.354 250.056 315.134Z" fill="#1D1337"/>
<path d="M245.855 311.988L245.977 311.593C246.973 308.372 250.391 306.568 253.611 307.564L263.847 310.728C267.068 311.724 268.872 315.142 267.876 318.362L267.754 318.757C266.759 321.978 263.341 323.781 260.12 322.786L249.884 319.622C246.663 318.626 244.859 315.208 245.855 311.988Z" fill="#402A78"/>
<path d="M246.866 312.084C247.743 309.245 250.756 307.655 253.595 308.532L263.314 311.537C266.153 312.414 267.744 315.427 266.866 318.266C265.988 321.105 262.975 322.696 260.136 321.818L250.417 318.814C247.578 317.936 245.988 314.923 246.866 312.084Z" fill="#462E84"/>
<path d="M248.076 312.457C248.784 310.167 251.215 308.884 253.505 309.592L262.79 312.462C265.081 313.17 266.363 315.601 265.655 317.891C264.947 320.182 262.517 321.465 260.226 320.757L250.941 317.887C248.651 317.179 247.368 314.748 248.076 312.457Z" fill="#AA9FC6"/>
<path d="M256 320.545L259.178 310.264L257.738 309.819L254.56 320.1L256 320.545Z" fill="#462E84"/>
<path d="M256 320.545L259.178 310.264L258.458 310.041L255.28 320.323L256 320.545Z" fill="#402A78"/>
<path d="M1173.83 196.713L1174.24 196.627C1177.53 195.919 1180.78 198.017 1181.49 201.313L1183.74 211.788C1184.45 215.084 1182.35 218.33 1179.05 219.037L1178.65 219.124C1175.35 219.832 1172.11 217.733 1171.4 214.438L1169.15 203.963C1168.44 200.667 1170.54 197.421 1173.83 196.713Z" fill="#402A78"/>
<path d="M1174.25 197.642C1177.15 197.018 1180.01 198.868 1180.64 201.773L1182.77 211.719C1183.4 214.624 1181.55 217.486 1178.64 218.109C1175.73 218.733 1172.87 216.883 1172.25 213.978L1170.11 204.032C1169.49 201.127 1171.34 198.266 1174.25 197.642Z" fill="#462E84"/>
<path d="M1174.51 198.88C1176.86 198.377 1179.16 199.869 1179.67 202.213L1181.71 211.714C1182.21 214.058 1180.72 216.367 1178.37 216.87C1176.03 217.373 1173.72 215.881 1173.22 213.537L1171.18 204.036C1170.68 201.692 1172.17 199.383 1174.51 198.88Z" fill="#AA9FC6"/>
<path d="M1171.34 209.748L1181.86 207.488L1181.54 206.015L1171.02 208.275L1171.34 209.748Z" fill="#462E84"/>
<path d="M1171.34 209.748L1181.86 207.488L1181.7 206.752L1171.18 209.012L1171.34 209.748Z" fill="#402A78"/>
<path d="M1373.46 56.8351L1373.42 56.4237C1373.13 53.0654 1375.61 50.1048 1378.97 49.8111L1389.65 48.8779C1393 48.5843 1395.96 51.0689 1396.26 54.427L1396.29 54.8384C1396.59 58.1967 1394.1 61.1573 1390.75 61.451L1380.07 62.3842C1376.71 62.6775 1373.75 60.193 1373.46 56.8351Z" fill="#1D1337"/>
<path d="M1371.38 52.507L1371.35 52.0956C1371.05 48.7373 1373.54 45.7767 1376.9 45.483L1387.57 44.5498C1390.93 44.2562 1393.89 46.7405 1394.18 50.0989L1394.22 50.5102C1394.51 53.8686 1392.03 56.8287 1388.67 57.1229L1377.99 58.0561C1374.64 58.3497 1371.68 55.8653 1371.38 52.507Z" fill="#402A78"/>
<path d="M1372.35 52.2149C1372.1 49.2546 1374.29 46.6446 1377.25 46.3859L1387.38 45.4998C1390.34 45.2411 1392.95 47.4311 1393.21 50.3914C1393.47 53.3517 1391.28 55.9617 1388.32 56.2204L1378.18 57.1065C1375.22 57.3652 1372.61 55.1752 1372.35 52.2149Z" fill="#462E84"/>
<path d="M1373.62 52.104C1373.41 49.7157 1375.17 47.6104 1377.56 47.4015L1387.24 46.5549C1389.63 46.346 1391.74 48.1129 1391.95 50.5011C1392.16 52.8894 1390.39 54.9947 1388 55.2036L1378.32 56.0502C1375.93 56.2591 1373.82 54.4922 1373.62 52.104Z" fill="#AA9FC6"/>
<path d="M1384.01 56.603L1383.07 45.8823L1381.57 46.0136L1382.5 56.7343L1384.01 56.603Z" fill="#462E84"/>
<path d="M1384.01 56.603L1383.07 45.8823L1382.32 45.9479L1383.26 56.6686L1384.01 56.603Z" fill="#402A78"/>
<path d="M1212.55 198.523L1212.72 198.149C1214.14 195.089 1217.76 193.756 1220.82 195.171L1230.55 199.667C1233.61 201.082 1234.94 204.71 1233.53 207.77L1233.35 208.144C1231.94 211.204 1228.31 212.537 1225.25 211.122L1215.53 206.626C1212.47 205.21 1211.13 201.583 1212.55 198.523Z" fill="#1D1337"/>
<path d="M1213.28 193.415L1213.46 193.04C1214.87 189.98 1218.5 188.647 1221.56 190.062L1231.28 194.558C1234.34 195.973 1235.68 199.601 1234.26 202.661L1234.09 203.035C1232.67 206.095 1229.05 207.429 1225.99 206.014L1216.26 201.517C1213.2 200.102 1211.87 196.474 1213.28 193.415Z" fill="#402A78"/>
<path d="M1214.27 193.645C1215.52 190.947 1218.72 189.772 1221.41 191.019L1230.65 195.289C1233.34 196.536 1234.52 199.734 1233.27 202.431C1232.03 205.128 1228.83 206.304 1226.13 205.056L1216.9 200.787C1214.2 199.54 1213.02 196.342 1214.27 193.645Z" fill="#462E84"/>
<path d="M1215.42 194.176C1216.43 192 1219.01 191.052 1221.18 192.058L1230 196.137C1232.18 197.143 1233.13 199.723 1232.12 201.899C1231.12 204.075 1228.54 205.023 1226.36 204.017L1217.54 199.938C1215.36 198.932 1214.42 196.352 1215.42 194.176Z" fill="#AA9FC6"/>
<path d="M1222.19 203.237L1226.71 193.469L1225.34 192.837L1220.83 202.605L1222.19 203.237Z" fill="#462E84"/>
<path d="M1222.19 203.237L1226.71 193.469L1226.03 193.153L1221.51 202.921L1222.19 203.237Z" fill="#402A78"/>
<path d="M1112.42 275.119L1112.73 274.856C1115.34 272.717 1119.19 273.095 1121.33 275.7L1128.12 283.979C1130.26 286.584 1129.89 290.43 1127.28 292.57L1126.96 292.832C1124.36 294.971 1120.51 294.594 1118.37 291.989L1111.57 283.71C1109.43 281.104 1109.81 277.258 1112.42 275.119Z" fill="#1D1337"/>
<path d="M1111.59 268.25L1111.91 267.988C1114.52 265.848 1118.36 266.226 1120.5 268.831L1127.3 277.11C1129.44 279.715 1129.06 283.562 1126.46 285.701L1126.14 285.963C1123.54 288.103 1119.69 287.725 1117.55 285.12L1110.75 276.841C1108.61 274.236 1108.99 270.389 1111.59 268.25Z" fill="#402A78"/>
<path d="M1112.38 268.887C1114.68 267.001 1118.07 267.334 1119.96 269.63L1126.41 277.491C1128.3 279.788 1127.97 283.179 1125.67 285.065C1123.37 286.951 1119.98 286.618 1118.1 284.321L1111.64 276.46C1109.75 274.164 1110.09 270.773 1112.38 268.887Z" fill="#462E84"/>
<path d="M1113.19 269.866C1115.04 268.345 1117.78 268.613 1119.3 270.466L1125.47 277.976C1126.99 279.829 1126.72 282.564 1124.87 284.086C1123.01 285.607 1120.28 285.339 1118.76 283.486L1112.59 275.976C1111.07 274.123 1111.34 271.388 1113.19 269.866Z" fill="#AA9FC6"/>
<path d="M1115.35 280.967L1123.67 274.138L1122.72 272.973L1114.4 279.803L1115.35 280.967Z" fill="#462E84"/>
<path d="M1115.36 280.968L1123.67 274.139L1123.19 273.557L1114.88 280.386L1115.36 280.968Z" fill="#402A78"/>
<path d="M1209 276.603L1208.86 276.216C1207.7 273.052 1209.32 269.544 1212.49 268.381L1222.54 264.685C1225.7 263.522 1229.21 265.144 1230.38 268.308L1230.52 268.696C1231.68 271.86 1230.06 275.367 1226.9 276.531L1216.84 280.227C1213.68 281.39 1210.17 279.767 1209 276.603Z" fill="#1D1337"/>
<path d="M1208.75 271.388L1208.61 271.001C1207.45 267.837 1209.07 264.329 1212.23 263.165L1222.29 259.469C1225.45 258.306 1228.96 259.929 1230.13 263.093L1230.27 263.48C1231.43 266.644 1229.81 270.152 1226.64 271.315L1216.59 275.011C1213.43 276.174 1209.92 274.552 1208.75 271.388Z" fill="#402A78"/>
<path d="M1209.62 270.851C1208.59 268.061 1210.02 264.969 1212.81 263.944L1222.36 260.434C1225.15 259.409 1228.24 260.839 1229.26 263.628C1230.29 266.418 1228.86 269.51 1226.07 270.535L1216.52 274.045C1213.73 275.07 1210.64 273.64 1209.62 270.851Z" fill="#462E84"/>
<path d="M1210.8 270.414C1209.98 268.164 1211.13 265.669 1213.38 264.842L1222.5 261.489C1224.75 260.662 1227.25 261.816 1228.08 264.066C1228.9 266.316 1227.75 268.811 1225.5 269.638L1216.38 272.991C1214.13 273.818 1211.63 272.665 1210.8 270.414Z" fill="#AA9FC6"/>
<path d="M1222 272.034L1218.29 261.933L1216.87 262.452L1220.59 272.554L1222 272.034Z" fill="#462E84"/>
<path d="M1222 272.033L1218.29 261.932L1217.58 262.192L1221.29 272.293L1222 272.033Z" fill="#402A78"/>
<path d="M145.5 73.4637L146.263 72.8576C146.823 72.4126 147.026 71.6803 146.749 71.1088L144.776 67.0399C144.41 66.2842 143.377 66.128 142.637 66.7169L137.756 70.5983C137.016 71.1871 136.937 72.2265 137.593 72.7521L141.125 75.5814C141.621 75.979 142.381 75.9443 142.941 75.4994L143.591 74.9823C146.469 79.8759 147.601 85.543 146.794 91.2782C145.814 98.2402 142.115 104.32 136.378 108.399L112.488 125.383C111.756 125.065 110.88 125.125 110.182 125.621C95.5129 136.05 75.2325 133.204 64.0112 119.142C52.7903 105.08 54.5465 84.7113 68.0088 72.7699C68.6488 72.2026 68.901 71.3634 68.7552 70.581L90.6817 51.1322C95.9461 46.4622 102.709 44.2227 109.726 44.8256C115.506 45.3221 120.786 47.6915 124.921 51.5851L124.271 52.1022C123.711 52.5471 123.507 53.2794 123.785 53.8509L125.757 57.9199C126.124 58.6756 127.156 58.8317 127.897 58.2429L132.777 54.3615C133.518 53.7726 133.597 52.7332 132.94 52.2077L129.409 49.3783C128.913 48.9808 128.153 49.015 127.593 49.4604L126.83 50.0666C122.265 45.6577 116.383 42.9751 109.933 42.4205C109.086 42.3478 108.243 42.3127 107.405 42.315C100.636 42.3333 94.2054 44.7768 89.075 49.3277L67.1495 68.7755C66.3872 68.5373 65.5231 68.6902 64.8832 69.2584C50.2948 82.1984 47.7776 103.828 58.577 119.691C51.7725 122.912 32.6374 132.238 12.266 144.584C12.8825 141.392 13.4915 138.127 14.0935 134.786C18.77 108.824 22.1146 83.1558 24.1699 65.3943C29.4166 65.4276 34.7087 63.7389 39.132 60.2218C49.4105 52.0483 51.1053 37.1045 42.9178 26.8438C34.7302 16.5831 19.7606 14.8911 9.48212 23.0646C-0.796402 31.2381 -2.4912 46.1819 5.69636 56.4426C9.3049 60.9644 14.2299 63.821 19.4906 64.9035C17.4432 82.5908 14.1127 108.144 9.45728 133.983C8.59042 138.795 7.70809 143.451 6.81123 147.946C-8.90707 157.804 -21.788 167.38 -31.4796 176.415C-43.9672 188.056 -51.2443 198.925 -53.1088 208.72C-54.5753 216.424 -52.7746 223.496 -47.752 229.79C-47.0793 230.633 -46.3474 231.463 -45.5589 232.278C-39.2752 238.772 -32.9348 240.952 -26.7145 238.755C-17.7458 235.589 -9.70595 223.417 -2.13536 201.543C2.50319 188.142 6.91531 171.141 11.0246 150.856C33.6088 136.849 55.5053 126.32 61.5255 123.494C74.5091 138.265 96.7136 140.962 112.911 129.446C113.608 128.95 113.951 128.144 113.889 127.349L137.78 110.364C144.063 105.897 148.114 99.2379 149.187 91.6129C150.089 85.2144 148.784 78.8918 145.5 73.4637ZM-6.58592 200.022C-9.95771 209.762 -13.473 217.599 -17.0337 223.316C-20.7632 229.305 -24.548 233.009 -28.2831 234.328C-32.6723 235.878 -37.2161 234.14 -42.174 229.016C-42.8678 228.298 -43.5073 227.574 -44.0933 226.839C-48.2574 221.62 -49.6958 215.954 -48.4858 209.599C-45.5683 194.268 -26.9339 175.216 5.5032 154.345C1.69728 172.484 -2.35196 187.791 -6.58592 200.022Z" fill="#1D1337"/>
<path d="M24.724 57.0002C37.8649 57.0002 48.5178 46.3658 48.5178 33.2477C48.5178 20.1295 37.8649 9.49512 24.724 9.49512C11.583 9.49512 0.930176 20.1295 0.930176 33.2477C0.930176 46.3658 11.583 57.0002 24.724 57.0002Z" fill="#271949"/>
<path d="M24.7243 55.6066C37.0942 55.6066 47.122 45.5963 47.122 33.2479C47.122 20.8995 37.0942 10.8892 24.7243 10.8892C12.3544 10.8892 2.32666 20.8995 2.32666 33.2479C2.32666 45.5963 12.3544 55.6066 24.7243 55.6066Z" fill="#32215E"/>
<path d="M24.7238 53.2238C35.7754 53.2238 44.7346 44.2802 44.7346 33.2477C44.7346 22.2151 35.7754 13.2715 24.7238 13.2715C13.6721 13.2715 4.71289 22.2151 4.71289 33.2477C4.71289 44.2802 13.6721 53.2238 24.7238 53.2238Z" fill="#462E84"/>
<path d="M24.7241 33.2479L4.81592 31.2319C5.38695 25.6389 8.30632 20.3186 13.2895 16.8545L24.7241 33.2479Z" fill="#8373AD"/>
<path d="M36.1597 49.6415L24.7251 33.2485L44.6338 35.2645C44.0632 40.8566 41.1443 46.1768 36.1597 49.6415Z" fill="#8373AD"/>
<path d="M107.608 39.2556C108.445 39.3072 109.284 39.3963 110.124 39.5233C117.751 40.6757 124.378 44.7906 128.785 51.1094C129.167 51.6565 129.032 52.4085 128.484 52.7897C127.936 53.1704 127.183 53.0358 126.801 52.4887C122.776 46.7193 116.725 42.9622 109.762 41.9101C102.799 40.8576 95.9052 42.6584 90.3506 46.98L65.6271 66.2159C50.943 77.6407 47.7742 98.5367 58.4123 113.789C69.0504 129.04 89.7823 133.323 105.61 123.538L132.26 107.063C138.248 103.362 142.331 97.532 143.758 90.6473C145.185 83.7626 143.755 76.794 139.731 71.0246C139.349 70.4775 139.484 69.7255 140.032 69.3448C140.58 68.9642 141.333 69.0982 141.715 69.6454C146.122 75.9642 147.689 83.5966 146.126 91.1363C144.563 98.6764 140.091 105.061 133.534 109.115L106.884 125.59C89.9638 136.05 67.801 131.472 56.4287 115.168C45.056 98.8639 48.4437 76.5254 64.1409 64.312L88.8644 45.0761C94.2774 40.8646 100.852 38.8389 107.608 39.2556Z" fill="#8373AD"/>
<path d="M107.566 39.934C108.383 39.9842 109.201 40.0714 110.021 40.1951C117.461 41.3194 123.926 45.3335 128.226 51.4981C128.393 51.7372 128.333 52.0663 128.094 52.2332C127.854 52.3996 127.524 52.341 127.358 52.1014C123.226 46.1774 117.013 42.3199 109.863 41.2397C102.714 40.159 95.6348 42.0081 89.9311 46.4455L65.2076 65.6814C50.2389 77.328 47.0083 98.63 57.8531 114.177C68.6985 129.725 89.8326 134.091 105.967 124.116L132.617 107.641C138.764 103.841 142.957 97.8545 144.423 90.7856C145.888 83.7167 144.419 76.5615 140.287 70.6374C140.12 70.3983 140.179 70.0692 140.419 69.9023C140.659 69.7358 140.988 69.7944 141.155 70.034C145.455 76.1981 146.983 83.644 145.459 90.9999C143.934 98.3557 139.571 104.585 133.174 108.539L106.524 125.014C89.9109 135.284 68.1513 130.789 56.9853 114.781C45.8193 98.7725 49.1452 76.8395 64.5578 64.8483L89.2813 45.6124C94.5617 41.5032 100.976 39.5275 107.566 39.934Z" fill="white"/>
<path d="M25.4485 46.5103C31.0268 46.5103 35.5489 41.996 35.5489 36.4273C35.5489 30.8586 31.0268 26.3442 25.4485 26.3442C19.8702 26.3442 15.3481 30.8586 15.3481 36.4273C15.3481 41.996 19.8702 46.5103 25.4485 46.5103Z" fill="#1D1337"/>
<path d="M29.4036 56.5399C28.7121 56.6787 28.0173 56.7856 27.3206 56.8611C26.9732 56.8986 23.0811 41.1578 23.0811 41.1578L26.3249 40.9712L29.4036 56.5399Z" fill="#1D1337"/>
<path d="M107.485 126.56C108.59 125.877 108.931 124.43 108.247 123.327C107.562 122.222 106.113 121.884 105.008 122.567C89.6973 132.032 69.6419 127.889 59.3507 113.135C49.0595 98.3819 52.1252 78.1676 66.3296 67.116C67.3545 66.3185 67.535 64.8375 66.7389 63.8197C65.94 62.7967 64.4618 62.6139 63.437 63.4109C48.0445 75.387 44.1387 96.81 53.8926 113.334C46.895 116.111 27.1982 124.188 6.07294 135.2C6.89385 132.055 7.71195 128.836 8.52818 125.54C19.937 79.4639 26.9807 34.0573 27.0505 33.6039C27.2479 32.3221 26.367 31.1229 25.0829 30.9255C23.7983 30.7286 22.5972 31.6081 22.3998 32.8899C22.3299 33.3414 15.3139 78.5666 3.95338 124.441C2.77803 129.187 1.59706 133.777 0.412811 138.205C-15.9084 147.032 -29.3801 155.761 -39.6338 164.155C-52.8457 174.97 -60.8087 185.349 -63.3005 195.004C-65.2607 202.597 -63.9194 209.771 -59.3127 216.374C-58.6957 217.259 -58.0187 218.134 -57.2846 218.998C-51.4327 225.883 -45.2456 228.465 -38.8968 226.673C-29.7425 224.089 -20.9347 212.458 -11.9693 191.116C-6.47657 178.041 -0.977257 161.358 4.43111 141.38C27.8714 128.854 50.4013 119.752 56.5912 117.32C68.595 132.894 90.5791 137.012 107.485 126.56ZM-16.3139 189.312C-20.3064 198.815 -24.3196 206.41 -28.2413 211.886C-32.3492 217.622 -36.3646 221.077 -40.1771 222.153C-44.6572 223.417 -49.0797 221.391 -53.6971 215.959C-54.3436 215.199 -54.9348 214.434 -55.4721 213.664C-59.2911 208.188 -60.361 202.441 -58.744 196.177C-54.8443 181.065 -35.0201 163.249 -1.30543 144.506C-6.27217 162.363 -11.3003 177.378 -16.3139 189.312Z" fill="#32215E"/>
<path d="M-42.7838 226.288C-47.4786 226.288 -52.1167 223.632 -56.57 218.393C-57.2817 217.556 -57.9456 216.697 -58.5438 215.839C-62.9836 209.475 -64.2789 202.544 -62.3928 195.237C-59.9517 185.779 -52.0942 175.565 -39.0393 164.879C-28.8334 156.525 -15.4095 147.827 0.859634 139.028L1.21452 138.836L1.3186 138.447C2.49957 134.032 3.69227 129.395 4.8634 124.666C16.1916 78.9209 23.2563 33.4861 23.3262 33.0323C23.4312 32.3488 24.0313 31.834 24.7219 31.834C24.7941 31.834 24.8677 31.8396 24.9399 31.8509C25.3131 31.9081 25.6422 32.1073 25.8658 32.4116C26.0895 32.7158 26.1809 33.0886 26.1232 33.4613C26.0534 33.9142 19.0139 79.2899 7.61774 125.316C6.80573 128.594 5.98107 131.84 5.16531 134.964L4.63226 137.007L6.5071 136.03C27.4312 125.123 46.8579 117.133 54.2391 114.204L55.2565 113.801L54.7009 112.859C50.0825 105.035 48.4688 95.7949 50.1566 86.8408C51.8533 77.8407 56.7745 69.7821 64.0136 64.1501C64.2645 63.9551 64.5645 63.8515 64.8819 63.8515C65.3221 63.8515 65.7296 64.0498 65.9996 64.3958C66.2312 64.6921 66.3329 65.0615 66.2865 65.4366C66.2401 65.8126 66.0507 66.1468 65.7535 66.378C51.1561 77.7357 48.0056 98.5089 58.5814 113.671C65.0915 123.004 75.7872 128.576 87.1919 128.575C93.6556 128.574 99.9871 126.772 105.502 123.363C105.727 123.223 105.984 123.15 106.246 123.15C106.74 123.15 107.19 123.401 107.45 123.82C107.649 124.141 107.711 124.52 107.625 124.887C107.538 125.254 107.313 125.566 106.992 125.765C101.029 129.452 94.1844 131.4 87.1999 131.401C87.1985 131.401 87.198 131.401 87.1966 131.401C81.5346 131.4 75.8482 130.101 70.7525 127.644C65.4487 125.086 60.9339 121.42 57.3338 116.75L56.9039 116.192L56.2476 116.45C49.91 118.94 27.4106 128.039 3.98857 140.556L3.63132 140.747L3.52584 141.137C-1.86659 161.055 -7.37107 177.749 -12.8348 190.755C-17.2661 201.304 -21.7326 209.584 -26.1109 215.365C-30.4101 221.042 -34.7978 224.543 -39.1527 225.772C-40.3651 226.115 -41.5869 226.288 -42.7838 226.288ZM-1.76204 143.689C-18.6083 153.054 -32.0899 162.246 -41.8335 171.008C-51.6703 179.855 -57.6657 188.244 -59.6526 195.943C-61.3469 202.507 -60.2311 208.479 -56.2419 214.199C-55.6915 214.988 -55.0759 215.784 -54.412 216.565C-50.4725 221.199 -46.6567 223.452 -42.7467 223.452C-41.8105 223.452 -40.8602 223.318 -39.9225 223.053C-35.9 221.918 -31.7134 218.344 -27.479 212.431C-23.516 206.897 -19.4686 199.24 -15.4494 189.673C-10.4353 177.739 -5.37293 162.627 -0.402447 144.757L0.197647 142.599L-1.76204 143.689Z" fill="#402A78"/>
<path d="M-1.30881 144.507C-4.25068 146.143 -7.08614 147.77 -9.81517 149.391C-9.87659 147.453 -9.58216 145.116 -8.29899 143.063C-5.49448 141.447 -2.58964 139.828 0.410376 138.205L-1.30881 144.507Z" fill="#1D1337"/>
<path d="M24.7254 43.3311C30.3036 43.3311 34.8257 38.8168 34.8257 33.2481C34.8257 27.6794 30.3036 23.165 24.7254 23.165C19.1471 23.165 14.625 27.6794 14.625 33.2481C14.625 38.8168 19.1471 43.3311 24.7254 43.3311Z" fill="#C6BED9"/>
<path d="M24.7241 33.2491L29.1564 26.5688C31.0392 27.815 32.3866 29.8427 32.6885 32.2552L24.7241 33.2491Z" fill="white"/>
<path d="M16.7632 34.242L24.7276 33.2485L20.2953 39.9288C18.4125 38.6832 17.0651 36.6555 16.7632 34.242Z" fill="white"/>
<path d="M124.913 56.0075L123.206 51.8204C122.967 51.2325 123.217 50.5147 123.804 50.1068L127.29 47.684C127.877 47.2756 128.638 47.2901 129.108 47.7186L132.449 50.7693C133.07 51.3361 132.925 52.368 132.148 52.9081L127.027 56.4679C126.251 57.007 125.23 56.7853 124.913 56.0075Z" fill="#271949"/>
<path d="M125.904 55.3195L123.983 51.2815C123.713 50.7142 123.831 50.0893 124.264 49.7883L126.835 48.0016C127.268 47.7006 127.895 47.8075 128.335 48.2566L131.462 51.4564C132.043 52.0508 132.05 52.9767 131.478 53.3748L127.701 55.9997C127.128 56.3982 126.261 56.0696 125.904 55.3195Z" fill="#402A78"/>
<path d="M126.901 54.6259L124.763 50.7384C124.463 50.1922 124.447 49.6601 124.724 49.4674L126.372 48.3221C126.649 48.1289 127.143 48.3291 127.552 48.7998L130.463 52.15C131.003 52.7726 131.165 53.5907 130.798 53.8463L128.377 55.5289C128.011 55.7839 127.298 55.3484 126.901 54.6259Z" fill="#462E84"/>
<path d="M135.769 71.5697L139.111 74.6198C139.58 75.0484 140.341 75.0629 140.928 74.6545L144.414 72.2317C145.002 71.8233 145.251 71.106 145.012 70.5176L143.305 66.3306C142.988 65.5528 141.968 65.3306 141.191 65.8706L136.07 69.4304C135.294 69.9705 135.148 71.0029 135.769 71.5697Z" fill="#271949"/>
<path d="M136.758 70.8818L139.885 74.0816C140.324 74.5312 140.952 74.6376 141.385 74.3366L143.956 72.5499C144.389 72.2489 144.506 71.6235 144.237 71.0567L142.315 67.0187C141.959 66.2686 141.091 65.9404 140.518 66.3385L136.742 68.9634C136.17 69.3614 136.177 70.2874 136.758 70.8818Z" fill="#402A78"/>
<path d="M137.76 70.1876L140.67 73.5378C141.079 74.0085 141.573 74.2082 141.851 74.0151L143.498 72.8697C143.776 72.6766 143.759 72.1445 143.459 71.5988L141.321 67.7113C140.924 66.9893 140.211 66.5537 139.844 66.8088L137.424 68.4914C137.057 68.7469 137.219 69.5655 137.76 70.1876Z" fill="#462E84"/>
<path d="M1380.31 358.114L1337.38 394.457C1335.88 395.726 1333.64 395.541 1332.37 394.045L1258.11 306.637C1256.84 305.141 1257.02 302.9 1258.52 301.631L1301.45 265.288C1302.95 264.019 1305.2 264.204 1306.47 265.7L1380.72 353.109C1381.99 354.604 1381.81 356.845 1380.31 358.114Z" fill="#32215E"/>
<path d="M1377.94 358.009L1337.67 392.101C1336.24 393.311 1334.1 393.135 1332.88 391.708L1260.51 306.512C1259.29 305.085 1259.47 302.947 1260.9 301.737L1301.17 267.645C1302.6 266.435 1304.74 266.611 1305.95 268.038L1378.33 353.233C1379.54 354.66 1379.37 356.798 1377.94 358.009Z" fill="#AA9FC6"/>
<path opacity="0.5" d="M1305.97 360.033C1305.97 360.033 1333.31 330.107 1294.62 273.19C1294.62 273.19 1309.12 322.792 1290.47 341.783L1305.97 360.033Z" fill="white"/>
<path opacity="0.5" d="M1348.02 317.558L1360.86 372.464L1337.67 392.1C1336.24 393.311 1334.09 393.135 1332.88 391.708L1327.85 385.779V293.809L1348.02 317.558Z" fill="white"/>
<path d="M1285.63 304.333C1286.69 307.888 1284.66 311.623 1281.1 312.678C1277.54 313.731 1273.79 311.704 1272.74 308.149C1271.68 304.594 1273.71 300.858 1277.27 299.804C1280.84 298.75 1284.58 300.778 1285.63 304.333Z" fill="#147473"/>
<path d="M1284.88 304.556C1285.81 307.694 1284.02 310.992 1280.87 311.922C1277.73 312.852 1274.43 311.063 1273.49 307.925C1272.56 304.787 1274.36 301.49 1277.5 300.559C1280.64 299.629 1283.94 301.418 1284.88 304.556Z" fill="#199493"/>
<path d="M1284.07 304.794C1284.87 307.489 1283.33 310.321 1280.63 311.121C1277.93 311.919 1275.1 310.383 1274.3 307.687C1273.5 304.992 1275.04 302.16 1277.74 301.361C1280.44 300.562 1283.27 302.099 1284.07 304.794Z" fill="#1CA3A2"/>
<path d="M1285.3 304.064L1272.88 307.741L1273.11 308.534L1285.54 304.857L1285.3 304.064Z" fill="#147473"/>
<path d="M1284.89 304.614C1284.93 304.747 1284.97 304.881 1284.99 305.016L1273.65 308.373C1273.6 308.245 1273.55 308.115 1273.51 307.982L1284.89 304.614Z" fill="#199493"/>
<path d="M1288.64 305.611C1289.94 310.01 1287.43 314.633 1283.02 315.937C1279.42 317.004 1275.67 315.523 1273.71 312.546C1275.79 314.474 1278.81 315.285 1281.74 314.421C1286.14 313.116 1288.66 308.495 1287.35 304.095C1287.11 303.289 1286.76 302.549 1286.32 301.884C1287.38 302.861 1288.2 304.129 1288.64 305.611Z" fill="#462E84"/>
<path opacity="0.5" d="M1271.46 306.815C1270.38 303.195 1272.45 299.39 1276.08 298.318C1279.04 297.439 1282.13 298.658 1283.74 301.108C1282.03 299.521 1279.54 298.854 1277.14 299.565C1273.51 300.639 1271.44 304.442 1272.52 308.062C1272.71 308.725 1273 309.335 1273.36 309.882C1272.49 309.077 1271.82 308.034 1271.46 306.815Z" fill="white"/>
<path d="M1301.01 292.913C1297.41 292.023 1295.21 288.384 1296.1 284.784C1296.99 281.185 1300.64 278.989 1304.24 279.878C1307.85 280.768 1310.05 284.408 1309.16 288.007C1308.27 291.607 1304.62 293.803 1301.01 292.913Z" fill="#147473"/>
<path d="M1301.2 292.148C1298.02 291.362 1296.08 288.151 1296.87 284.974C1297.65 281.797 1300.87 279.858 1304.05 280.643C1307.24 281.429 1309.18 284.641 1308.39 287.818C1307.6 290.995 1304.39 292.933 1301.2 292.148Z" fill="#199493"/>
<path d="M1301.4 291.336C1298.67 290.661 1297 287.902 1297.68 285.173C1298.35 282.444 1301.12 280.779 1303.85 281.454C1306.58 282.128 1308.25 284.887 1307.58 287.616C1306.9 290.346 1304.14 292.011 1301.4 291.336Z" fill="#1CA3A2"/>
<path d="M1301.41 292.771L1304.52 280.212L1303.72 280.013L1300.61 292.572L1301.41 292.771Z" fill="#147473"/>
<path d="M1301.15 292.133C1301.01 292.099 1300.88 292.06 1300.75 292.016L1303.59 280.549C1303.72 280.571 1303.86 280.598 1303.99 280.63L1301.15 292.133Z" fill="#199493"/>
<path d="M1312.08 285.766C1313.39 290.165 1310.87 294.788 1306.47 296.092C1302.87 297.16 1299.12 295.678 1297.15 292.701C1299.24 294.629 1302.26 295.44 1305.18 294.576C1309.59 293.271 1312.1 288.649 1310.79 284.25C1310.55 283.444 1310.21 282.704 1309.76 282.039C1310.82 283.016 1311.64 284.284 1312.08 285.766Z" fill="#462E84"/>
<path opacity="0.5" d="M1294.9 286.97C1293.83 283.349 1295.89 279.545 1299.52 278.472C1302.48 277.594 1305.57 278.813 1307.19 281.262C1305.47 279.676 1302.98 279.008 1300.58 279.719C1296.95 280.793 1294.89 284.596 1295.96 288.217C1296.16 288.88 1296.45 289.489 1296.81 290.036C1295.94 289.232 1295.26 288.189 1294.9 286.97Z" fill="white"/>
<path d="M1304.22 326.206C1305.27 329.761 1303.24 333.497 1299.68 334.551C1296.12 335.605 1292.38 333.578 1291.32 330.023C1290.27 326.468 1292.3 322.732 1295.86 321.678C1299.42 320.624 1303.16 322.651 1304.22 326.206Z" fill="#147473"/>
<path d="M1297.77 334.04C1301.05 334.04 1303.71 331.387 1303.71 328.115C1303.71 324.842 1301.05 322.189 1297.77 322.189C1294.49 322.189 1291.83 324.842 1291.83 328.115C1291.83 331.387 1294.49 334.04 1297.77 334.04Z" fill="#199493"/>
<path d="M1297.77 333.204C1300.59 333.204 1302.87 330.926 1302.87 328.115C1302.87 325.304 1300.59 323.025 1297.77 323.025C1294.95 323.025 1292.67 325.304 1292.67 328.115C1292.67 330.926 1294.95 333.204 1297.77 333.204Z" fill="#1CA3A2"/>
<path d="M1303.89 325.937L1291.46 329.615L1291.7 330.408L1304.12 326.731L1303.89 325.937Z" fill="#147473"/>
<path d="M1303.48 326.487C1303.52 326.621 1303.55 326.755 1303.58 326.889L1292.23 330.247C1292.18 330.119 1292.14 329.989 1292.1 329.855L1303.48 326.487Z" fill="#199493"/>
<path d="M1307.22 327.485C1308.53 331.884 1306.01 336.507 1301.61 337.811C1298.01 338.878 1294.26 337.397 1292.29 334.42C1294.38 336.348 1297.4 337.159 1300.32 336.295C1304.72 334.99 1307.24 330.368 1305.93 325.969C1305.69 325.163 1305.34 324.423 1304.9 323.758C1305.96 324.735 1306.78 326.003 1307.22 327.485Z" fill="#462E84"/>
<path opacity="0.5" d="M1290.04 328.689C1288.97 325.069 1291.03 321.264 1294.66 320.192C1297.62 319.313 1300.71 320.532 1302.32 322.982C1300.61 321.396 1298.12 320.728 1295.72 321.439C1292.09 322.513 1290.03 326.316 1291.1 329.936C1291.3 330.599 1291.58 331.209 1291.95 331.756C1291.08 330.951 1290.4 329.908 1290.04 328.689Z" fill="white"/>
<path d="M1315.43 304.842C1317.33 301.654 1321.45 300.605 1324.65 302.498C1327.84 304.392 1328.89 308.511 1326.99 311.699C1325.1 314.886 1320.97 315.936 1317.78 314.043C1314.58 312.15 1313.53 308.03 1315.43 304.842Z" fill="#147473"/>
<path d="M1316.11 305.244C1317.78 302.431 1321.42 301.504 1324.24 303.175C1327.06 304.846 1327.99 308.482 1326.32 311.296C1324.64 314.11 1321 315.036 1318.18 313.365C1315.36 311.694 1314.43 308.058 1316.11 305.244Z" fill="#199493"/>
<path d="M1316.83 305.671C1318.27 303.254 1321.39 302.459 1323.81 303.894C1326.24 305.329 1327.03 308.452 1325.6 310.87C1324.16 313.286 1321.03 314.082 1318.61 312.647C1316.19 311.211 1315.39 308.088 1316.83 305.671Z" fill="#1CA3A2"/>
<path d="M1315.88 304.561L1327.03 311.167L1326.6 311.878L1315.46 305.272L1315.88 304.561Z" fill="#147473"/>
<path d="M1316.14 305.194C1316.21 305.075 1316.29 304.959 1316.37 304.848L1326.54 310.88C1326.48 311.003 1326.41 311.125 1326.34 311.244L1316.14 305.194Z" fill="#199493"/>
<path d="M1330.66 307.641C1331.97 312.04 1329.46 316.663 1325.05 317.967C1321.45 319.035 1317.7 317.553 1315.74 314.576C1317.82 316.504 1320.84 317.315 1323.76 316.451C1328.17 315.146 1330.68 310.524 1329.38 306.125C1329.14 305.319 1328.79 304.579 1328.35 303.914C1329.41 304.891 1330.23 306.158 1330.66 307.641Z" fill="#462E84"/>
<path opacity="0.5" d="M1313.49 308.845C1312.41 305.224 1314.48 301.42 1318.1 300.347C1321.07 299.469 1324.15 300.687 1325.77 303.138C1324.05 301.551 1321.57 300.884 1319.16 301.595C1315.54 302.668 1313.47 306.472 1314.54 310.092C1314.74 310.755 1315.03 311.364 1315.39 311.911C1314.52 311.108 1313.85 310.064 1313.49 308.845Z" fill="white"/>
<path d="M1342.31 323.918C1345.75 325.303 1347.42 329.214 1346.03 332.653C1344.64 336.093 1340.73 337.758 1337.28 336.372C1333.83 334.987 1332.17 331.076 1333.56 327.637C1334.94 324.197 1338.86 322.532 1342.31 323.918Z" fill="#147473"/>
<path d="M1342.01 324.648C1345.05 325.871 1346.52 329.323 1345.3 332.359C1344.07 335.394 1340.62 336.864 1337.58 335.641C1334.53 334.419 1333.06 330.966 1334.29 327.931C1335.51 324.896 1338.97 323.426 1342.01 324.648Z" fill="#199493"/>
<path d="M1341.7 325.424C1344.31 326.474 1345.57 329.439 1344.52 332.046C1343.47 334.654 1340.5 335.916 1337.89 334.866C1335.27 333.816 1334.01 330.85 1335.06 328.243C1336.11 325.636 1339.09 324.373 1341.7 325.424Z" fill="#1CA3A2"/>
<path d="M1342.65 324.321L1337.81 336.322L1337.04 336.012L1341.88 324.013L1342.65 324.321Z" fill="#147473"/>
<path d="M1342.07 324.672C1342.2 324.724 1342.32 324.782 1342.45 324.843L1338.02 335.8C1337.89 335.76 1337.76 335.714 1337.63 335.663L1342.07 324.672Z" fill="#199493"/>
<path d="M1349.24 329.516C1350.55 333.915 1348.04 338.539 1343.63 339.842C1340.03 340.91 1336.28 339.428 1334.32 336.451C1336.4 338.379 1339.42 339.19 1342.34 338.326C1346.75 337.021 1349.26 332.4 1347.96 328C1347.72 327.194 1347.37 326.454 1346.93 325.789C1347.99 326.766 1348.8 328.034 1349.24 329.516Z" fill="#462E84"/>
<path opacity="0.5" d="M1332.06 330.72C1330.99 327.1 1333.06 323.295 1336.68 322.223C1339.65 321.345 1342.73 322.564 1344.35 325.013C1342.63 323.427 1340.15 322.759 1337.74 323.47C1334.12 324.544 1332.05 328.347 1333.12 331.967C1333.32 332.63 1333.61 333.24 1333.97 333.787C1333.1 332.982 1332.43 331.939 1332.06 330.72Z" fill="white"/>
<path d="M1289.31 293.891L1350.61 366.491C1350.61 366.491 1300.54 297.801 1289.31 293.891Z" fill="#8373AD"/>
<path d="M1246.47 255.169C1250.52 255.169 1253.8 251.885 1253.8 247.833C1253.8 243.781 1250.52 240.497 1246.47 240.497C1242.42 240.497 1239.13 243.781 1239.13 247.833C1239.13 251.885 1242.42 255.169 1246.47 255.169Z" fill="#1D1337"/>
<path d="M1245.26 249.585C1241.22 249.9 1237.69 246.881 1237.38 242.842C1237.06 238.803 1240.08 235.273 1244.12 234.958C1248.16 234.642 1251.69 237.662 1252.01 241.7C1252.32 245.739 1249.3 249.27 1245.26 249.585Z" fill="#147473"/>
<path d="M1247.98 247.854C1251.07 246.044 1252.1 242.077 1250.29 238.993C1248.48 235.908 1244.51 234.875 1241.43 236.685C1238.34 238.495 1237.31 242.462 1239.12 245.547C1240.93 248.631 1244.9 249.664 1247.98 247.854Z" fill="#199493"/>
<path d="M1245.13 247.816C1242.06 248.055 1239.39 245.766 1239.15 242.704C1238.91 239.642 1241.2 236.965 1244.26 236.726C1247.32 236.487 1250 238.776 1250.24 241.838C1250.48 244.901 1248.19 247.577 1245.13 247.816Z" fill="#1CA3A2"/>
<path d="M1245.62 249.285L1244.52 235.19L1243.62 235.261L1244.72 249.355L1245.62 249.285Z" fill="#147473"/>
<path d="M1245.13 248.731C1244.98 248.742 1244.83 248.746 1244.68 248.746L1243.68 235.877C1243.82 235.853 1243.97 235.835 1244.12 235.822L1245.13 248.731Z" fill="#199493"/>
<path d="M1308.95 95.1554C1309.36 91.1238 1306.42 87.5268 1302.39 87.1213C1298.35 86.7157 1294.76 89.6551 1294.35 93.6866C1293.95 97.7181 1296.89 101.315 1300.92 101.721C1304.95 102.126 1308.55 99.1869 1308.95 95.1554Z" fill="#1D1337"/>
<path d="M1305.37 93.7246C1308.06 90.6902 1307.78 86.0536 1304.74 83.3685C1301.71 80.6834 1297.07 80.9665 1294.38 84.0009C1291.7 87.0353 1291.98 91.6718 1295.02 94.357C1298.05 97.0421 1302.69 96.7589 1305.37 93.7246Z" fill="#147473"/>
<path d="M1300.38 95.3174C1296.82 95.5958 1293.7 92.9309 1293.42 89.3663C1293.14 85.801 1295.81 82.6855 1299.37 82.4072C1302.94 82.1288 1306.06 84.7937 1306.33 88.3583C1306.61 91.9236 1303.95 95.0397 1300.38 95.3174Z" fill="#199493"/>
<path d="M1300.31 94.4076C1297.25 94.6464 1294.57 92.3581 1294.33 89.2955C1294.1 86.2328 1296.38 83.5567 1299.45 83.3179C1302.51 83.0791 1305.18 85.3674 1305.42 88.43C1305.66 91.4927 1303.37 94.1688 1300.31 94.4076Z" fill="#1CA3A2"/>
<path d="M1300.81 95.8802L1299.71 81.7861L1298.81 81.8564L1299.91 95.9506L1300.81 95.8802Z" fill="#147473"/>
<path d="M1300.32 95.322C1300.17 95.3333 1300.02 95.3379 1299.87 95.3372L1298.86 82.4685C1299.01 82.4447 1299.16 82.4263 1299.31 82.4131L1300.32 95.322Z" fill="#199493"/>
<path d="M1370.87 194.04C1374.92 194.04 1378.21 190.755 1378.21 186.704C1378.21 182.652 1374.92 179.367 1370.87 179.367C1366.82 179.367 1363.53 182.652 1363.53 186.704C1363.53 190.755 1366.82 194.04 1370.87 194.04Z" fill="#1D1337"/>
<path d="M1376.37 182.101C1376.9 178.084 1374.08 174.396 1370.06 173.863C1366.04 173.329 1362.35 176.153 1361.82 180.17C1361.29 184.186 1364.11 187.875 1368.13 188.408C1372.14 188.941 1375.83 186.117 1376.37 182.101Z" fill="#147473"/>
<path d="M1369.26 187.624C1372.84 187.532 1375.66 184.56 1375.57 180.985C1375.48 177.41 1372.51 174.586 1368.93 174.678C1365.36 174.77 1362.53 177.742 1362.62 181.317C1362.72 184.892 1365.69 187.715 1369.26 187.624Z" fill="#199493"/>
<path d="M1369.53 186.687C1366.47 186.926 1363.79 184.637 1363.55 181.575C1363.31 178.512 1365.6 175.836 1368.66 175.597C1371.73 175.358 1374.4 177.647 1374.64 180.709C1374.88 183.771 1372.59 186.447 1369.53 186.687Z" fill="#1CA3A2"/>
<path d="M1363.83 185.957L1374.8 177.043L1374.23 176.342L1363.26 185.256L1363.83 185.957Z" fill="#147473"/>
<path d="M1369.54 187.601C1369.38 187.612 1369.23 187.617 1369.08 187.616L1368.08 174.747C1368.23 174.724 1368.38 174.705 1368.53 174.692L1369.54 187.601Z" fill="#199493"/>
<path d="M181.25 148.505C185.302 148.505 188.587 145.22 188.587 141.168C188.587 137.117 185.302 133.832 181.25 133.832C177.199 133.832 173.914 137.117 173.914 141.168C173.914 145.22 177.199 148.505 181.25 148.505Z" fill="#1D1337"/>
<path d="M186.745 136.566C187.278 132.549 184.454 128.861 180.438 128.328C176.421 127.794 172.733 130.618 172.2 134.635C171.667 138.651 174.49 142.339 178.507 142.873C182.523 143.406 186.212 140.582 186.745 136.566Z" fill="#147473"/>
<path d="M179.641 142.089C183.216 141.997 186.04 139.025 185.949 135.45C185.857 131.875 182.885 129.051 179.31 129.143C175.735 129.234 172.911 132.207 173.003 135.782C173.094 139.357 176.066 142.18 179.641 142.089Z" fill="#199493"/>
<path d="M179.909 141.152C176.846 141.391 174.17 139.102 173.931 136.04C173.692 132.977 175.981 130.301 179.043 130.062C182.105 129.823 184.782 132.112 185.021 135.174C185.26 138.236 182.971 140.912 179.909 141.152Z" fill="#1CA3A2"/>
<path d="M174.212 140.422L185.183 131.508L184.613 130.806L173.642 139.721L174.212 140.422Z" fill="#147473"/>
<path d="M179.914 142.066C179.763 142.077 179.612 142.082 179.463 142.081L178.458 129.212C178.606 129.188 178.756 129.17 178.907 129.157L179.914 142.066Z" fill="#199493"/>
<path d="M1363.8 315.236C1367.81 314.707 1370.64 311.021 1370.11 307.005C1369.58 302.988 1365.9 300.16 1361.88 300.689C1357.86 301.218 1355.04 304.904 1355.57 308.921C1356.09 312.938 1359.78 315.765 1363.8 315.236Z" fill="#1D1337"/>
<path d="M1355.41 308.504C1352.28 305.931 1351.83 301.309 1354.4 298.179C1356.97 295.049 1361.6 294.598 1364.73 297.17C1367.86 299.743 1368.31 304.366 1365.73 307.496C1363.16 310.626 1358.54 311.078 1355.41 308.504Z" fill="#147473"/>
<path d="M1355.95 307.84C1353.19 305.568 1352.79 301.488 1355.06 298.726C1357.34 295.964 1361.42 295.565 1364.18 297.836C1366.94 300.107 1367.34 304.188 1365.07 306.95C1362.8 309.712 1358.72 310.11 1355.95 307.84Z" fill="#199493"/>
<path d="M1356.54 307.134C1354.16 305.183 1353.82 301.678 1355.77 299.305C1357.72 296.933 1361.23 296.59 1363.6 298.541C1365.97 300.491 1366.31 303.997 1364.36 306.369C1362.41 308.743 1358.91 309.084 1356.54 307.134Z" fill="#1CA3A2"/>
<path d="M1352.92 302.664L1367.01 303.845L1367.08 302.944L1353 301.764L1352.92 302.664Z" fill="#147473"/>
<path d="M1355.9 307.797C1355.79 307.701 1355.68 307.6 1355.57 307.495L1363.77 297.524C1363.89 297.61 1364.01 297.701 1364.13 297.796L1355.9 307.797Z" fill="#199493"/>
<path d="M51.4682 182.624C55.0373 182.624 57.9306 179.731 57.9306 176.162C57.9306 172.593 55.0373 169.699 51.4682 169.699C47.8992 169.699 45.0059 172.593 45.0059 176.162C45.0059 179.731 47.8992 182.624 51.4682 182.624Z" fill="#1D1337"/>
<path d="M56.3082 172.107C56.7779 168.569 54.2906 165.32 50.7526 164.851C47.2145 164.381 43.9656 166.868 43.496 170.406C43.0263 173.944 45.5136 177.193 49.0517 177.663C52.5897 178.133 55.8385 175.645 56.3082 172.107Z" fill="#147473"/>
<path d="M50.051 176.972C53.2 176.891 55.6874 174.273 55.6068 171.124C55.5261 167.975 52.908 165.488 49.7589 165.568C46.6099 165.649 44.1225 168.267 44.2031 171.416C44.2838 174.565 46.9019 177.053 50.051 176.972Z" fill="#199493"/>
<path d="M50.2863 176.146C47.5886 176.357 45.2313 174.341 45.0209 171.643C44.8106 168.946 46.8262 166.588 49.524 166.378C52.2212 166.168 54.5791 168.183 54.7894 170.881C55.0004 173.578 52.9841 175.935 50.2863 176.146Z" fill="#1CA3A2"/>
<path d="M45.2684 175.504L54.9326 167.651L54.4306 167.034L44.7664 174.886L45.2684 175.504Z" fill="#147473"/>
<path d="M50.2917 176.952C50.1587 176.961 50.0256 176.966 49.8937 176.965L49.0088 165.629C49.1389 165.608 49.2708 165.592 49.4039 165.581L50.2917 176.952Z" fill="#199493"/>
<path d="M45.2373 289.381C48.7757 288.915 51.2663 285.668 50.8001 282.13C50.334 278.592 47.0877 276.101 43.5494 276.567C40.011 277.033 37.5204 280.28 37.9866 283.818C38.4527 287.356 41.699 289.847 45.2373 289.381Z" fill="#1D1337"/>
<path d="M37.8478 283.451C35.0908 281.184 34.6933 277.112 36.96 274.355C39.2266 271.598 43.2986 271.201 46.0556 273.467C48.8127 275.733 49.2101 279.805 46.944 282.562C44.6768 285.32 40.6049 285.718 37.8478 283.451Z" fill="#147473"/>
<path d="M38.3289 282.865C35.8955 280.865 35.5445 277.27 37.545 274.838C39.5456 272.404 43.1393 272.053 45.5727 274.054C48.0062 276.054 48.3571 279.649 46.3566 282.082C44.3566 284.515 40.7623 284.865 38.3289 282.865Z" fill="#199493"/>
<path d="M38.8413 282.244C36.7513 280.525 36.4498 277.438 38.1679 275.348C39.8861 273.258 42.9737 272.956 45.0637 274.674C47.1537 276.392 47.4553 279.48 45.7372 281.57C44.0184 283.661 40.9314 283.962 38.8413 282.244Z" fill="#1CA3A2"/>
<path d="M35.6567 278.306L48.0654 279.346L48.1319 278.553L35.7231 277.513L35.6567 278.306Z" fill="#147473"/>
<path d="M38.2856 282.828C38.1827 282.743 38.084 282.654 37.9893 282.562L45.2099 273.779C45.3185 273.854 45.4249 273.934 45.5283 274.018L38.2856 282.828Z" fill="#199493"/>
<path d="M1277.61 138.397L1218.95 103.693L1220.21 101.528L1206.13 90.3598L1208.26 86.7218L1206.69 85.8098L1204.56 89.4467L1202.14 88.0388L1205.36 82.5287L1200.52 79.7117L1199.42 81.5838L1194.58 78.7668L1199.93 69.6107L1023.65 -32.9333L1015.36 -18.7362L1012.7 -20.2823L1020.99 -34.4793L1010.15 -40.7812L988.786 -4.17425L999.62 2.12775L1007.91 -12.0692L1010.56 -10.5233L1002.28 3.67375L1178.56 106.218L1183.9 97.0618L1188.75 99.8788L1187.65 101.751L1192.5 104.568L1195.71 99.0587L1198.13 100.467L1196.01 104.104L1197.58 105.016L1199.7 101.379L1216.37 108.099L1217.66 105.892L1276.83 139.729C1277.57 140.154 1278.34 140.203 1278.55 139.839C1278.76 139.475 1278.34 138.833 1277.61 138.397Z" fill="#1D1337"/>
<path d="M991.129 -7.19704L1010.94 -44.665L1191.37 50.421L1171.56 87.889L991.129 -7.19704Z" fill="#8373AD"/>
<path d="M1000.75 -14.1115L1013.24 -37.7295L1185.52 53.0635L1173.03 76.6815L1000.75 -14.1115Z" fill="#C6BED9"/>
<path d="M991.129 -7.19727L993.497 -11.6763L1173.93 83.4097L1171.56 87.8887L991.129 -7.19727Z" fill="#462E84"/>
<path d="M1159.35 75.7307L1174.43 47.2197L1185.52 53.0637L1170.44 81.5747L1159.35 75.7307Z" fill="#32215E"/>
<path d="M1162.64 77.4626L1177.72 48.9526L1182.23 51.3316L1167.16 79.8426L1162.64 77.4626Z" fill="#1D1337"/>
<path d="M1003.48 -19.2713L1007.92 -27.6763L1169.12 57.2727L1164.67 65.6787L1003.48 -19.2713Z" fill="white"/>
<path d="M1181.47 81.129L1191.37 62.405L1186.41 59.793L1176.51 78.517L1181.47 81.129Z" fill="#8373AD"/>
<path d="M1185.41 85.6563L1197.34 63.1003L1192.38 60.4883L1180.46 83.0443L1185.41 85.6563Z" fill="#402A78"/>
<path d="M1190.51 85.8923L1200.41 67.1683L1198.81 66.3223L1188.9 85.0463L1190.51 85.8923Z" fill="#402A78"/>
<path d="M1190.87 81.3233L1196.84 70.0453L1194.36 68.7393L1188.39 80.0173L1190.87 81.3233Z" fill="#1D1337"/>
<path d="M1181.45 75.1796L1188.92 67.0476L1183.96 64.4355L1178.97 73.8736L1181.45 75.1796Z" fill="#C6BED9"/>
<path d="M1187.14 82.3868L1195.61 66.3708L1190.65 63.7588L1182.19 79.7748L1187.14 82.3868Z" fill="#462E84"/>
<path d="M1191.94 83.1776L1198.97 69.8836L1197.37 69.0376L1190.34 82.3316L1191.94 83.1776Z" fill="#462E84"/>
<path d="M1192.39 78.4626L1195.32 72.9066L1192.85 71.6006L1189.91 77.1566L1192.39 78.4626Z" fill="#32215E"/>
<path d="M1209.42 88.1866L1212.98 81.4616L1198.44 70.8916L1192.48 82.1696L1209.42 88.1866Z" fill="#402A78"/>
<path d="M1210.33 86.4649L1212.06 83.1849L1196.93 73.7529L1193.99 79.3089L1210.33 86.4649Z" fill="#462E84"/>
<path d="M1272.97 117.38C1273.17 117.008 1272.72 116.384 1271.97 115.98L1211.84 83.7227L1210.65 85.9737L1271.25 117.342C1272.01 117.735 1272.77 117.752 1272.97 117.38Z" fill="#8373AD"/>
<path d="M1272.97 117.38C1273.07 117.199 1272.85 116.895 1272.48 116.699L1211.54 84.2939L1210.95 85.403L1272.13 117.359C1272.5 117.552 1272.87 117.561 1272.97 117.38Z" fill="#C6BED9"/>
<path d="M1160.1 47.6556L1164.91 38.5566L1167.17 39.7457L1162.35 48.8447L1160.1 47.6556Z" fill="white"/>
<path d="M1151.47 37.2936L1153.88 32.7437L1156.14 33.9336L1153.73 38.4827L1151.47 37.2936Z" fill="white"/>
<path d="M1138.04 36.0306L1142.85 26.9316L1145.11 28.1207L1140.3 37.2197L1138.04 36.0306Z" fill="white"/>
<path d="M1127.01 30.2176L1131.82 21.1196L1134.08 22.3086L1129.27 31.4076L1127.01 30.2176Z" fill="white"/>
<path d="M1118.39 19.8566L1120.79 15.3066L1123.05 16.4966L1120.64 21.0456L1118.39 19.8566Z" fill="white"/>
<path d="M1104.95 18.5936L1109.76 9.49463L1112.02 10.6836L1107.21 19.7826L1104.95 18.5936Z" fill="white"/>
<path d="M1093.92 12.7806L1098.73 3.68164L1100.99 4.87164L1096.18 13.9706L1093.92 12.7806Z" fill="white"/>
<path d="M1085.3 2.41863L1087.71 -2.13037L1089.96 -0.941368L1087.56 3.60863L1085.3 2.41863Z" fill="white"/>
<path d="M1071.86 1.15564L1076.68 -7.94336L1078.93 -6.75336L1074.12 2.34563L1071.86 1.15564Z" fill="white"/>
<path d="M162.465 60.384L162.058 60.3188C158.729 59.785 156.464 56.6536 156.998 53.3249L158.695 42.7468C159.229 39.4182 162.36 37.153 165.689 37.6868L166.097 37.752C169.425 38.2859 171.69 41.4173 171.157 44.7459L169.459 55.324C168.926 58.6521 165.794 60.9178 162.465 60.384Z" fill="#1D1337"/>
<path d="M157.795 58.0505L157.387 57.9853C154.058 57.4515 151.793 54.3201 152.327 50.9914L154.024 40.4133C154.558 37.0847 157.689 34.8195 161.018 35.3533L161.426 35.4185C164.754 35.9524 167.019 39.0838 166.486 42.4124L164.788 52.9905C164.255 56.3186 161.123 58.5843 157.795 58.0505Z" fill="#402A78"/>
<path d="M157.748 57.0363C154.814 56.5656 152.817 53.8055 153.287 50.8713L154.899 40.827C155.37 37.8928 158.13 35.8959 161.064 36.3666C163.998 36.8373 165.995 39.5974 165.524 42.5316L163.913 52.5759C163.442 55.51 160.682 57.507 157.748 57.0363Z" fill="#462E84"/>
<path d="M157.949 55.7858C155.582 55.4061 153.971 53.1793 154.351 50.812L155.89 41.2164C156.27 38.8492 158.497 37.2382 160.864 37.6179C163.231 37.9977 164.842 40.2245 164.462 42.5917L162.923 52.1874C162.543 54.5546 160.317 56.1655 157.949 55.7858Z" fill="#AA9FC6"/>
<path d="M164.84 46.814L154.214 45.1094L153.975 46.5972L164.601 48.3018L164.84 46.814Z" fill="#462E84"/>
<path d="M164.839 46.814L154.213 45.1094L154.094 45.853L164.72 47.5577L164.839 46.814Z" fill="#402A78"/>
</g>
</g>
<defs>
<filter id="filter0_i_2373_2769" x="0" y="0" width="1442" height="340" filterUnits="userSpaceOnUse" color-interpolation-filters="sRGB">
<feFlood flood-opacity="0" result="BackgroundImageFix"/>
<feBlend mode="normal" in="SourceGraphic" in2="BackgroundImageFix" result="shape"/>
<feColorMatrix in="SourceAlpha" type="matrix" values="0 0 0 0 0 0 0 0 0 0 0 0 0 0 0 0 0 0 127 0" result="hardAlpha"/>
<feMorphology radius="10" operator="erode" in="SourceAlpha" result="effect1_innerShadow_2373_2769"/>
<feOffset/>
<feGaussianBlur stdDeviation="62"/>
<feComposite in2="hardAlpha" operator="arithmetic" k2="-1" k3="1"/>
<feColorMatrix type="matrix" values="0 0 0 0 1 0 0 0 0 1 0 0 0 0 1 0 0 0 0.32 0"/>
<feBlend mode="normal" in2="shape" result="effect1_innerShadow_2373_2769"/>
</filter>
<radialGradient id="paint0_radial_2373_2769" cx="0" cy="0" r="1" gradientUnits="userSpaceOnUse" gradientTransform="translate(100.02 58.7126) rotate(46.2284) scale(367.668 325.571)">
<stop stop-color="white"/>
<stop offset="1" stop-color="white" stop-opacity="0"/>
</radialGradient>
<radialGradient id="paint1_radial_2373_2769" cx="0" cy="0" r="1" gradientUnits="userSpaceOnUse" gradientTransform="translate(939.875 279.62) rotate(157.868) scale(338.904 300.101)">
<stop stop-color="white"/>
<stop offset="1" stop-color="white" stop-opacity="0"/>
</radialGradient>
<radialGradient id="paint2_radial_2373_2769" cx="0" cy="0" r="1" gradientUnits="userSpaceOnUse" gradientTransform="translate(-97.7431 10.9542) rotate(28.1737) scale(1235.52 1094.06)">
<stop stop-color="white"/>
<stop offset="1" stop-color="white" stop-opacity="0"/>
</radialGradient>
<radialGradient id="paint3_radial_2373_2769" cx="0" cy="0" r="1" gradientUnits="userSpaceOnUse" gradientTransform="translate(-13.265 314.051) rotate(-44.4744) scale(71.8502 63.3125)">
<stop stop-color="white"/>
<stop offset="1" stop-color="white" stop-opacity="0"/>
</radialGradient>
<radialGradient id="paint4_radial_2373_2769" cx="0" cy="0" r="1" gradientUnits="userSpaceOnUse" gradientTransform="translate(237.434 125.931) rotate(-44.4744) scale(71.8502 63.3125)">
<stop stop-color="white"/>
<stop offset="1" stop-color="white" stop-opacity="0"/>
</radialGradient>
<radialGradient id="paint5_radial_2373_2769" cx="0" cy="0" r="1" gradientUnits="userSpaceOnUse" gradientTransform="translate(174.757 251.288) rotate(-44.4744) scale(71.8502 63.3125)">
<stop stop-color="white"/>
<stop offset="1" stop-color="white" stop-opacity="0"/>
</radialGradient>
<radialGradient id="paint6_radial_2373_2769" cx="0" cy="0" r="1" gradientUnits="userSpaceOnUse" gradientTransform="translate(174.77 376.729) rotate(-44.4744) scale(71.8502 63.3125)">
<stop stop-color="white"/>
<stop offset="1" stop-color="white" stop-opacity="0"/>
</radialGradient>
<radialGradient id="paint7_radial_2373_2769" cx="0" cy="0" r="1" gradientUnits="userSpaceOnUse" gradientTransform="translate(488.149 188.61) rotate(-44.4744) scale(71.8502 63.3125)">
<stop stop-color="white"/>
<stop offset="1" stop-color="white" stop-opacity="0"/>
</radialGradient>
<radialGradient id="paint8_radial_2373_2769" cx="0" cy="0" r="1" gradientUnits="userSpaceOnUse" gradientTransform="translate(300.128 251.288) rotate(-44.4744) scale(71.8502 63.3125)">
<stop stop-color="white"/>
<stop offset="1" stop-color="white" stop-opacity="0"/>
</radialGradient>
<radialGradient id="paint9_radial_2373_2769" cx="0" cy="0" r="1" gradientUnits="userSpaceOnUse" gradientTransform="translate(362.805 314.051) rotate(-44.4744) scale(71.8502 63.3125)">
<stop stop-color="white"/>
<stop offset="1" stop-color="white" stop-opacity="0"/>
</radialGradient>
<radialGradient id="paint10_radial_2373_2769" cx="0" cy="0" r="1" gradientUnits="userSpaceOnUse" gradientTransform="translate(613.505 188.61) rotate(-44.4744) scale(71.8502 63.3125)">
<stop stop-color="white"/>
<stop offset="1" stop-color="white" stop-opacity="0"/>
</radialGradient>
<radialGradient id="paint11_radial_2373_2769" cx="0" cy="0" r="1" gradientUnits="userSpaceOnUse" gradientTransform="translate(488.163 313.966) rotate(-44.4744) scale(71.8502 63.3125)">
<stop stop-color="white"/>
<stop offset="1" stop-color="white" stop-opacity="0"/>
</radialGradient>
<radialGradient id="paint12_radial_2373_2769" cx="0" cy="0" r="1" gradientUnits="userSpaceOnUse" gradientTransform="translate(738.862 188.61) rotate(-44.4744) scale(71.8502 63.3125)">
<stop stop-color="white"/>
<stop offset="1" stop-color="white" stop-opacity="0"/>
</radialGradient>
<radialGradient id="paint13_radial_2373_2769" cx="0" cy="0" r="1" gradientUnits="userSpaceOnUse" gradientTransform="translate(550.84 314.051) rotate(-44.4744) scale(71.8502 63.3125)">
<stop stop-color="white"/>
<stop offset="1" stop-color="white" stop-opacity="0"/>
</radialGradient>
<radialGradient id="paint14_radial_2373_2769" cx="0" cy="0" r="1" gradientUnits="userSpaceOnUse" gradientTransform="translate(926.897 188.61) rotate(-44.4744) scale(71.8502 63.3125)">
<stop stop-color="white"/>
<stop offset="1" stop-color="white" stop-opacity="0"/>
</radialGradient>
<radialGradient id="paint15_radial_2373_2769" cx="0" cy="0" r="1" gradientUnits="userSpaceOnUse" gradientTransform="translate(801.54 188.61) rotate(-44.4744) scale(71.8502 63.3125)">
<stop stop-color="white"/>
<stop offset="1" stop-color="white" stop-opacity="0"/>
</radialGradient>
<radialGradient id="paint16_radial_2373_2769" cx="0" cy="0" r="1" gradientUnits="userSpaceOnUse" gradientTransform="translate(1294.07 -53.5883) rotate(89.9288) scale(377.795 334.539)">
<stop stop-color="white"/>
<stop offset="1" stop-color="white" stop-opacity="0"/>
</radialGradient>
<radialGradient id="paint17_radial_2373_2769" cx="0" cy="0" r="1" gradientUnits="userSpaceOnUse" gradientTransform="translate(1880.05 279.62) rotate(157.868) scale(338.904 300.101)">
<stop stop-color="white"/>
<stop offset="1" stop-color="white" stop-opacity="0"/>
</radialGradient>
<radialGradient id="paint18_radial_2373_2769" cx="0" cy="0" r="1" gradientUnits="userSpaceOnUse" gradientTransform="translate(1046.39 -129.242) rotate(39.2624) scale(1143.27 1012.37)">
<stop stop-color="white"/>
<stop offset="1" stop-color="white" stop-opacity="0"/>
</radialGradient>
<radialGradient id="paint19_radial_2373_2769" cx="0" cy="0" r="1" gradientUnits="userSpaceOnUse" gradientTransform="translate(926.911 314.051) rotate(-44.4744) scale(71.8502 63.3125)">
<stop stop-color="white"/>
<stop offset="1" stop-color="white" stop-opacity="0"/>
</radialGradient>
<radialGradient id="paint20_radial_2373_2769" cx="0" cy="0" r="1" gradientUnits="userSpaceOnUse" gradientTransform="translate(1177.61 125.931) rotate(-44.4744) scale(71.8502 63.3125)">
<stop stop-color="white"/>
<stop offset="1" stop-color="white" stop-opacity="0"/>
</radialGradient>
<radialGradient id="paint21_radial_2373_2769" cx="0" cy="0" r="1" gradientUnits="userSpaceOnUse" gradientTransform="translate(1114.93 251.288) rotate(-44.4744) scale(71.8502 63.3125)">
<stop stop-color="white"/>
<stop offset="1" stop-color="white" stop-opacity="0"/>
</radialGradient>
<radialGradient id="paint22_radial_2373_2769" cx="0" cy="0" r="1" gradientUnits="userSpaceOnUse" gradientTransform="translate(1114.95 376.729) rotate(-44.4744) scale(71.8502 63.3125)">
<stop stop-color="white"/>
<stop offset="1" stop-color="white" stop-opacity="0"/>
</radialGradient>
<radialGradient id="paint23_radial_2373_2769" cx="0" cy="0" r="1" gradientUnits="userSpaceOnUse" gradientTransform="translate(1428.32 188.61) rotate(-44.4744) scale(71.8502 63.3125)">
<stop stop-color="white"/>
<stop offset="1" stop-color="white" stop-opacity="0"/>
</radialGradient>
<radialGradient id="paint24_radial_2373_2769" cx="0" cy="0" r="1" gradientUnits="userSpaceOnUse" gradientTransform="translate(1240.3 251.288) rotate(-44.4744) scale(71.8502 63.3125)">
<stop stop-color="white"/>
<stop offset="1" stop-color="white" stop-opacity="0"/>
</radialGradient>
<radialGradient id="paint25_radial_2373_2769" cx="0" cy="0" r="1" gradientUnits="userSpaceOnUse" gradientTransform="translate(1302.98 314.051) rotate(-44.4744) scale(71.8502 63.3125)">
<stop stop-color="white"/>
<stop offset="1" stop-color="white" stop-opacity="0"/>
</radialGradient>
<clipPath id="clip0_2373_2769">
<rect width="1442" height="340" fill="white"/>
</clipPath>
<clipPath id="clip1_2373_2769">
<rect width="1442" height="340" fill="white"/>
</clipPath>
<clipPath id="clip2_2373_2769">
<rect width="1440" height="467" fill="white" transform="translate(1 -65.9868)"/>
</clipPath>
</defs>
</svg>
